<svg id="Layer_1" data-name="Layer 1" xmlns="http://www.w3.org/2000/svg" viewBox="0 0 154 154"><defs><style>.cls-1{fill:#21235f;}.cls-2{fill:#f8991d;}.cls-3{fill:#cb2026;}.cls-4{fill:#fcb342;}.cls-5{fill:#222160;}.cls-6{fill:#fff;}</style></defs><title>Artboard 16 copy 8</title><circle class="cls-1" cx="77" cy="77" r="77"/><g id="layer1"><g id="g10305"><path id="path2268" class="cls-2" d="M134.35 77a34.32 34.32 0 0 1-68.65 0 34.32 34.32 0 1 1 68.65 0z"/><path id="path1350" class="cls-3" d="M53.76 42.68a34.32 34.32 0 1 0 23.32 59.7 34.57 34.57 0 0 0 3.48-3.68h-7A33.55 33.55 0 0 1 71 95.17h12.1a34.74 34.74 0 0 0 2-3.67H69a34 34 0 0 1-1.43-3.61h19a34.47 34.47 0 0 0 1-18.24h-21a33.77 33.77 0 0 1 1-3.6h19A34 34 0 0 0 85 62.37H69a32.49 32.49 0 0 1 2-3.61h12.06a34.43 34.43 0 0 0-2.66-3.68h-6.76a31.61 31.61 0 0 1 3.44-3.47A34.2 34.2 0 0 0 54 42.68z"/><path id="use9412" class="cls-4" d="M130.9 94.94a1.13 1.13 0 0 1 .55.14 1 1 0 0 1 .41.41 1.11 1.11 0 0 1 0 1.11 1 1 0 0 1-.41.41 1.12 1.12 0 0 1-1.1 0 1 1 0 0 1-.41-.41 1.12 1.12 0 0 1 0-1.11 1 1 0 0 1 .41-.41 1.14 1.14 0 0 1 .55-.14m0 .19a.93.93 0 0 0-.46.12.84.84 0 0 0-.34.34.93.93 0 0 0-.13.46 1 1 0 0 0 .12.46.87.87 0 0 0 .34.34.92.92 0 0 0 .92 0 .86.86 0 0 0 .34-.34.93.93 0 0 0 0-.92.84.84 0 0 0-.35-.34.91.91 0 0 0-.45-.12m-.49 1.54v-1.2h.41a1.08 1.08 0 0 1 .3 0 .32.32 0 0 1 .21.29.31.31 0 0 1-.09.23.38.38 0 0 1-.25.11l.1.06a1.41 1.41 0 0 1 .18.24l.14.23h-.23l-.11-.19a.93.93 0 0 0-.2-.28.24.24 0 0 0-.15 0h-.11v.51h-.19m.19-.67h.23a.37.37 0 0 0 .23-.05.17.17 0 0 0 .06-.13.16.16 0 0 0 0-.09.16.16 0 0 0-.08-.06.56.56 0 0 0-.19 0h-.22V96"/></g><g id="g16480"><g id="g13802"><path id="path13804" class="cls-5" d="M65.37 86.85l.46-3.11c-.25 0-.62.11-.94.11-1.27 0-1.43-.68-1.33-1.18l1.25-6.25h1.93l.4-3.53h-1.82l.37-2.13h-3.81c-.08.08-2.16 12-2.16 13.47 0 2.15 1.21 3.11 2.91 3.1a9.61 9.61 0 0 0 2.74-.48z"/><path id="path13806" class="cls-5" d="M66.53 80.93c0 5.16 3.41 6.39 6.31 6.39a11 11 0 0 0 4.09-.62l.64-3.52a13.23 13.23 0 0 1-4.11.92c-3.92 0-3.24-2.93-3.24-2.93h7.54a26.27 26.27 0 0 0 .48-3.34c0-2.41-1.31-5.36-5.32-5.36-3.67.02-6.39 3.98-6.39 8.46zm6.41-5.16c2.06 0 1.68 2.32 1.68 2.51h-4.06c0-.28.38-2.52 2.38-2.52z"/><path id="path13808" class="cls-5" d="M96.08 86.84l.65-4a8.81 8.81 0 0 1-3 .9c-2.59 0-3.63-2-3.63-4.1 0-4.31 2.23-6.69 4.71-6.69a6.5 6.5 0 0 1 3.36 1l.6-3.87a7.27 7.27 0 0 0-3.66-1.28c-5.71 0-9 4-9 10.83 0 4.56 2.42 7.65 6.78 7.65a16.93 16.93 0 0 0 3.19-.44z"/><path id="path13810" class="cls-5" d="M45.27 72.55a12.63 12.63 0 0 0-4.43.8l-.53 3.15a11.54 11.54 0 0 1 4-.64c1.36 0 2.36.15 2.36 1.26a2.34 2.34 0 0 1-.12.92s-1.07-.09-1.57-.09c-3.57 0-6.48 1.35-6.48 5.42 0 3.2 2.18 3.94 3.53 3.94a4.5 4.5 0 0 0 3.66-1.63v1.35h3.22L50.29 77c0-4.32-3.73-4.45-5.02-4.45zm.56 8.17c.07.61-.16 3.52-2.36 3.52A1.33 1.33 0 0 1 42 82.86c0-1 .54-2.2 3.22-2.2.66 0 .5.04.6.06z"/><path id="path13812" class="cls-5" d="M53.71 87.23c.82 0 5.53.21 5.53-4.65 0-4.54-4.36-3.64-4.36-5.47 0-.91.71-1.2 2-1.2.51 0 2.5.17 2.5.17l.46-3.23a17 17 0 0 0-3.37-.29c-2.7 0-5.45 1.08-5.45 4.77 0 4.19 4.58 3.76 4.58 5.53 0 1.18-1.28 1.27-2.26 1.27a11.91 11.91 0 0 1-3.25-.56l-.49 3.2a11.64 11.64 0 0 0 4.11.46z"/><path id="path13814" class="cls-5" d="M126.22 69.62l-.66 4.92a4.83 4.83 0 0 0-3.53-1.9c-4.05 0-6.14 4-6.14 8.68 0 3 1.49 5.93 4.53 5.93a4.57 4.57 0 0 0 3.4-1.53l-.16 1.3h3.56L130 69.65zm-1.57 9.57c0 1.93-1 4.51-2.94 4.51-1.32 0-1.93-1.1-1.93-2.84 0-2.83 1.27-4.7 2.88-4.7 1.34 0 1.99.9 1.99 3.03z"/><path id="path13816" class="cls-5" d="M25.48 87l2.22-13.08L28 87h2.52l4.7-13.12L33.17 87h3.74l2.88-17.4h-5.94l-3.54 10.65-.1-10.61h-5.44L21.84 87z"/><path id="path13818" class="cls-5" d="M81.79 87.06c1.06-6 1.44-10.83 4.54-9.84a21.06 21.06 0 0 1 2-5.37s-.15-.23-1.11-.23c-1.64 0-3.82 3.32-3.82 3.32l.33-2.05h-3.4L78 87.06z"/><g id="use14699"><path id="path13810-2" data-name="path13810" class="cls-5" d="M103.73 72.55a12.64 12.64 0 0 0-4.43.8l-.53 3.15a11.54 11.54 0 0 1 4-.64c1.36 0 2.36.15 2.36 1.26a2.34 2.34 0 0 1-.13.88s-1.07-.09-1.57-.09c-3.57 0-6.48 1.35-6.48 5.42 0 3.2 2.18 3.94 3.53 3.94a4.51 4.51 0 0 0 3.66-1.63v1.35h3.22l1.39-9.99c0-4.32-3.75-4.45-5.02-4.45zm.56 8.17c.07.61-.16 3.52-2.36 3.52a1.33 1.33 0 0 1-1.43-1.38c0-1 .54-2.2 3.22-2.2.62 0 .46.04.57.06z"/></g><path id="use14701" class="cls-5" d="M112.45 87.06c.58-4.45 1.66-10.7 4.54-9.84.44-2.34 0-2.34-.94-2.34a17 17 0 0 0-2 .06l.33-2.05H111l-2.3 14.17z"/></g><g id="g10289"><path id="path4157" class="cls-6" d="M66.32 85.74l.46-3.11c-.25 0-.62.11-.94.11-1.27 0-1.41-.68-1.33-1.18l1-6.34h1.93l.47-3.44h-1.8l.37-2.14h-3.65c-.08.08-2.16 12-2.16 13.47 0 2.15 1.21 3.11 2.91 3.09a9.61 9.61 0 0 0 2.74-.46z"/><path id="path4155" class="cls-6" d="M67.48 79.82c0 5.16 3.41 6.39 6.31 6.39a9.29 9.29 0 0 0 3.86-.6l.64-3.53a11.36 11.36 0 0 1-3.88.9c-3.92 0-3.24-2.93-3.24-2.93h7.43a26.33 26.33 0 0 0 .48-3.33c0-2.41-1.2-5.34-5.21-5.34-3.67 0-6.39 3.96-6.39 8.44zm6.41-5.16c2.06 0 1.68 2.32 1.68 2.51h-4.06c0-.25.39-2.52 2.38-2.52z"/><path id="path4151" class="cls-6" d="M97 85.74l.65-4a8.79 8.79 0 0 1-3 .9c-2.59 0-3.63-2-3.63-4.11 0-4.31 2.23-6.69 4.71-6.69a6.51 6.51 0 0 1 3.36 1l.6-3.87a13.12 13.12 0 0 0-4.12-.9c-4.22 0-8.32 3.66-8.32 10.53 0 4.56 2.22 7.57 6.58 7.57a16.89 16.89 0 0 0 3.17-.43z"/><path id="path4149" class="cls-6" d="M46.22 71.44a12.63 12.63 0 0 0-4.43.8l-.53 3.15a11.56 11.56 0 0 1 4-.64c1.36 0 2.36.15 2.36 1.26a2.34 2.34 0 0 1-.12.92s-1.07-.09-1.57-.09c-3.16 0-6.48 1.35-6.48 5.41 0 3.2 2.18 3.94 3.53 3.94a4.75 4.75 0 0 0 3.75-1.68l-.12 1.4h3.19l1.44-10.07c0-4.26-3.72-4.4-5.02-4.4zm.78 8.2c.07.61-.38 3.5-2.59 3.5A1.33 1.33 0 0 1 43 81.75c0-1 .54-2.2 3.22-2.2a2.29 2.29 0 0 1 .78.08z"/><path id="path4145" class="cls-6" d="M54.66 86.12c.82 0 5.53.21 5.53-4.65 0-4.54-4.36-3.64-4.36-5.47 0-.91.71-1.19 2-1.19.51 0 2.5.16 2.5.16l.46-3.23a17.16 17.16 0 0 0-3.37-.29c-2.7 0-5.45 1.08-5.45 4.77 0 4.18 4.58 3.76 4.58 5.53 0 1.18-1.28 1.27-2.26 1.27a11.76 11.76 0 0 1-3.29-.55l-.49 3.2a11.59 11.59 0 0 0 4.15.45z"/><path id="path4139" class="cls-6" d="M127.3 68.54l-.79 4.89a4.83 4.83 0 0 0-3.53-1.9c-3.35 0-6.14 4-6.14 8.68 0 3 1.49 5.93 4.53 5.93a4.57 4.57 0 0 0 3.4-1.53l-.16 1.3h3.55L131 68.54zm-1.7 9.54c0 1.93-1 4.51-2.94 4.51-1.31 0-1.93-1.1-1.93-2.83 0-2.83 1.27-4.7 2.88-4.7 1.32-.06 1.99.94 1.99 3.02z"/><path id="path4133" class="cls-6" d="M26.43 85.93l2.22-13.12.35 13.12h2.5l4.7-13.12-2.08 13.12h3.74l2.88-17.4H35L31.35 79.2l-.19-10.68h-5.33l-2.92 17.4z"/><path id="path4131" class="cls-6" d="M82.74 86c1.06-6 1.26-11 3.8-10.06a14.13 14.13 0 0 1 1.36-4.24 3.74 3.74 0 0 0-.7 0c-1.64 0-2.85 2.24-2.85 2.24l.33-2.05h-3.4L79 86z"/><g id="use8523"><path id="path4149-2" data-name="path4149" class="cls-6" d="M105.46 71.44a12.63 12.63 0 0 0-4.43.8l-.53 3.15a11.57 11.57 0 0 1 4-.64c1.36 0 2.36.15 2.36 1.26a2.35 2.35 0 0 1-.12.92s-1.07-.09-1.57-.09c-3.16 0-6.48 1.35-6.48 5.41 0 3.2 2.18 3.94 3.53 3.94a4.75 4.75 0 0 0 3.75-1.68l-.12 1.4H109l1.44-10.07c.04-4.26-3.68-4.4-4.98-4.4zm.78 8.2c.07.61-.39 3.5-2.59 3.5a1.33 1.33 0 0 1-1.43-1.38c0-1 .54-2.2 3.22-2.2a2.32 2.32 0 0 1 .81.07z"/></g><g id="use8525"><path id="path4131-2" data-name="path4131" class="cls-6" d="M113.42 86c1.07-6 1.26-11 3.8-10.06a14.07 14.07 0 0 1 1.36-4.24 3.76 3.76 0 0 0-.71 0c-1.64 0-2.85 2.24-2.85 2.24l.33-2.05h-3.4L109.67 86z"/></g><path id="text9407" class="cls-6" d="M130.89 83.77a1.12 1.12 0 0 1 .54.14 1 1 0 0 1 .42.41 1.11 1.11 0 0 1 0 1.11 1 1 0 0 1-.41.41 1.13 1.13 0 0 1-1.1 0 1 1 0 0 1-.41-.41 1.11 1.11 0 0 1-.15-.55 1.12 1.12 0 0 1 .15-.56 1 1 0 0 1 .42-.41 1.14 1.14 0 0 1 .55-.14m0 .18a.93.93 0 0 0-.46.12.84.84 0 0 0-.35.34.92.92 0 0 0-.13.46 1 1 0 0 0 .12.46.89.89 0 0 0 .35.34.93.93 0 0 0 .92 0 .88.88 0 0 0 .34-.34.93.93 0 0 0 0-.92.84.84 0 0 0-.35-.34.92.92 0 0 0-.45-.12m-.49 1.54V84.3h.41a1 1 0 0 1 .3 0 .32.32 0 0 1 .21.29.3.3 0 0 1-.1.23.35.35 0 0 1-.22.18l.1.06a1.46 1.46 0 0 1 .18.24l.15.23h-.24l-.11-.19a1 1 0 0 0-.2-.28.26.26 0 0 0-.15 0h-.11v.51h-.19m.19-.67h.23a.36.36 0 0 0 .23 0 .17.17 0 0 0 .06-.13.16.16 0 0 0 0-.09.16.16 0 0 0-.08-.06.57.57 0 0 0-.19 0h-.22v.36"/></g></g></g></svg>