<svg id="Layer_1" data-name="Layer 1" xmlns="http://www.w3.org/2000/svg" viewBox="0 0 156 156"><defs><style>.cls-1{fill:#f36b21;}.cls-2{fill:#fff;fill-rule:evenodd;}</style></defs><title>Artboard 1 copy 10</title><circle class="cls-1" cx="78" cy="78" r="77"/><path class="cls-2" d="M85.51 105.74v30.62h-15v-30.61c-8.68 5.31-17.85 6.68-27.54 3.81a32.08 32.08 0 0 1-17-12 33 33 0 0 1 .12-39.1 32.26 32.26 0 0 1 20.58-12.84 32.53 32.53 0 0 1 23.81 4.73V20.3c0-.66 0-.66.65-.66h13.76c.62 0 .62 0 .62.64v30c9-5.46 18.45-6.75 28.42-3.49a31.63 31.63 0 0 1 16.72 12.69 32.81 32.81 0 0 1-2.18 39.92 32 32 0 0 1-20.26 11.21 32.66 32.66 0 0 1-22.7-4.87zM34.68 78A17.88 17.88 0 1 0 52.9 60.17 17.84 17.84 0 0 0 34.68 78zm68.76-17.88a17.88 17.88 0 1 0 17.84 17.92 17.87 17.87 0 0 0-17.84-17.89z" id="r4N1pN"/></svg>