<svg id="Layer_1" data-name="Layer 1" xmlns="http://www.w3.org/2000/svg" viewBox="0 0 156 156"><defs><style>.cls-1{fill:#0d8b44;}.cls-2{fill:#fff;fill-rule:evenodd;}</style></defs><title>Artboard 1 copy 6</title><circle class="cls-1" cx="78" cy="78" r="77"/><path class="cls-2" d="M80 33.7c1.22.21 2.47.35 3.67.65 9.36 2.39 15.75 8 18.46 17.42a15 15 0 0 1 .54 3.59c0 1 .4 1.38 1.42 1.45a21.83 21.83 0 0 1 15 7.4A24.21 24.21 0 0 1 125.7 82a24.78 24.78 0 0 1-21.14 23.53 25.08 25.08 0 0 1-10.45-.67 1.08 1.08 0 0 1-1-1 19.63 19.63 0 0 1 1.59-10.72 48.3 48.3 0 0 0 5.77 1 13 13 0 0 0 13.49-12A13.29 13.29 0 0 0 99 67.91a37.84 37.84 0 0 0-9.42 2.74l-1 .41a.88.88 0 0 1-.25 0c.68-1.83 1.39-3.61 2-5.42A17.53 17.53 0 0 0 91.09 55a13.19 13.19 0 0 0-25.68 1.25 17.71 17.71 0 0 0 .81 8.75c.68 2 1.46 4 2.24 6.13-.43-.16-.81-.29-1.18-.44a37.12 37.12 0 0 0-9.71-2.81 13.22 13.22 0 1 0 3.78 25.19l.72-.27a38.76 38.76 0 0 1 1.41 5 46.4 46.4 0 0 1 .25 5.6c0 .9-.37 1.35-1.31 1.6A24.85 24.85 0 0 1 31.5 85.67c-.19-1-.33-2-.49-3v-3.16a6.43 6.43 0 0 0 .21-.85 24.45 24.45 0 0 1 8.66-16.51 21.78 21.78 0 0 1 12.67-5.36c1.69-.14 1.37.19 1.6-1.64a22.71 22.71 0 0 1 .73-4.06c2.89-9.09 9.19-14.44 18.28-16.74 1.2-.3 2.44-.44 3.66-.65z"/><path class="cls-2" d="M58.26 121.76a24.2 24.2 0 0 0 10.42-18.12c.73-8.67-2.38-15.91-9-21.58-.3-.25-.61-.49-1-.84.36 0 .59-.08.82-.08h11.35a1.67 1.67 0 0 1 1.61.83 33.75 33.75 0 0 1 5.79 17.15c0 .29 0 .59.08.88 0 .06.06.11.21.35.13-1.25.22-2.33.35-3.4a33.08 33.08 0 0 1 5.61-15.09c.21-.31.62-.7.94-.7h12.64c-1.3 1.25-2.64 2.36-3.76 3.66-9.91 11.45-8 27.93 4.22 37z"/></svg>