<svg id="Layer_1" data-name="Layer 1" xmlns="http://www.w3.org/2000/svg" viewBox="0 0 154 154"><defs><style>.cls-1{fill:#2b3b92;}.cls-2{fill:#fff;}.cls-3{fill:#f6951e;}.cls-4{fill:#2b3c92;}</style></defs><title>Artboard 16 copy 9</title><circle class="cls-1" cx="77" cy="77" r="77"/><g id="g10"><g id="g4163"><g id="g12"><path id="path14" class="cls-2" d="M54.89 99.54l6.7-41.45h10.7l-6.7 41.45h-10.7"/></g><g id="g16"><path id="path18" class="cls-2" d="M104.42 59.1a26.56 26.56 0 0 0-9.59-1.74c-10.58 0-18 5.62-18.09 13.68-.07 6 5.32 9.28 9.37 11.26s5.57 3.33 5.56 5.15c0 2.78-3.33 4-6.41 4a21.49 21.49 0 0 1-10.08-2.17l-1.38-.66-1.5 9.28a32.35 32.35 0 0 0 11.93 2.21c11.25 0 18.55-5.56 18.64-14.16 0-4.72-2.81-8.31-9-11.26-3.74-1.92-6-3.2-6-5.14C87.87 67.87 89.8 66 94 66a18.75 18.75 0 0 1 8 1.59l1 .47 1.45-9"/></g><g id="g20"><path id="path22" class="cls-2" d="M118.67 84.84c.89-2.38 4.26-11.59 4.26-11.59s.88-2.4 1.42-4l.72 3.57s2.05 9.89 2.48 12zm13.2-26.71h-8.27c-2.57 0-4.49.74-5.61 3.44l-15.9 38h11.24s1.83-5.11 2.25-6.23h13.71c.32 1.44 1.3 6.21 1.3 6.21h9.93l-8.66-41.43"/></g><g id="g24"><path id="path26" class="cls-2" d="M45.91 58.12L35.43 86.38l-1.12-5.74c-2-6.62-8-13.79-14.83-17.39l9.59 36.25H40.4l16.85-41.38H45.91"/></g><g id="g28"><path id="path30" class="cls-3" d="M25.71 58.1H8.45l-.14.9c13.43 3.43 22.32 11.72 26 21.69l-3.75-19c-.65-2.63-2.53-3.4-4.85-3.5"/></g><g id="g32"><path id="path34" class="cls-4" d="M143.58 96.83h.51c.36 0 .43-.21.43-.38s-.19-.36-.48-.36h-.46zm-.44-1.06h1a.68.68 0 0 1 .78.68.56.56 0 0 1-.4.54c.3.05.32.34.34.56s0 .43.1.56h-.46c-.09-.09-.07-.15-.09-.54 0-.22 0-.44-.52-.44h-.36v1h-.44zM144 99a2 2 0 1 0-1.92-2 1.95 1.95 0 0 0 1.92 2zm0-4.37a2.36 2.36 0 1 1-2.35 2.37 2.35 2.35 0 0 1 2.35-2.39"/></g></g></g></svg>