<svg id="Layer_1" data-name="Layer 1" xmlns="http://www.w3.org/2000/svg" viewBox="0 0 156 156"><defs><style>.cls-1{fill:#029049;}.cls-2,.cls-3{fill:#fff;}.cls-2{fill-rule:evenodd;}</style></defs><title>Artboard 1 copy 8</title><circle class="cls-1" cx="78" cy="78" r="77"/><path class="cls-2" d="M51.16 95.67L38.61 61.22h-5.46L20.74 95.67h5.36L29 87.5h13.74l2.9 8.17zm-10-12.8H30.54L33.29 75c.89-2.56 2.12-6.5 2.51-8 .39 1.48 1.77 5.46 2.61 7.92l2.76 7.92z"/><path class="cls-3" d="M77.44 95.67l-7.77-17.18 6.54-8.66h-5.75l-5.36 7.53c-.84 1.23-2.17 3.2-2.86 4.23V59.79l-5.07 2.66v33.22h5.07V88l3.94-5.22 5.71 12.85zM95.55 90.55a8.13 8.13 0 0 1-3.74 1c-1.87 0-2.66-.69-2.66-3.1v-14h6.4v-4.62h-6.4v-10l-5 2.66v7.38h-3.66v4.63h3.69v14.87c0 4.63 2.21 6.84 5.81 6.84A10.28 10.28 0 0 0 95 95l.59-4.48z"/><path class="cls-2" d="M108.49 63.23a3.27 3.27 0 1 0-3.25 3.25 3.29 3.29 0 0 0 3.25-3.25zm-.74 32.44V69.83h-5.07v25.84zM135.26 95.67V78c0-5.86-3.94-8.66-9.69-8.66a16 16 0 0 0-8.86 2.31l2 3.84a13 13 0 0 1 6.74-1.62c3.15 0 4.87 1.58 4.87 4.38v1.92a14.27 14.27 0 0 0-5.76-1c-5.86 0-10.29 2.61-10.29 8.37 0 6.35 4.77 8.71 9 8.71a10.17 10.17 0 0 0 7.09-3.1v2.56zm-5-7.33a8.13 8.13 0 0 1-6.25 3.3c-3.35 0-5-1.72-5-4.28 0-2.36 2.07-3.84 5.32-3.84a12.77 12.77 0 0 1 5.91 1.13v3.69z"/></svg>