<svg id="Layer_1" data-name="Layer 1" xmlns="http://www.w3.org/2000/svg" viewBox="0 0 156 156"><defs><style>.cls-1{fill:#0366a5;}.cls-2{fill:#fff;}</style></defs><title>Artboard 1 copy 9</title><circle class="cls-1" cx="78" cy="78" r="77"/><path id="path6" class="cls-2" d="M49.28 114.86c0 3.81 3.27 6.48 8 6.48s8-2.66 8-6.48-3.27-6.48-8-6.48-8 2.66-8 6.48zm3.26 0c0-2.25 1.89-3.76 4.69-3.76s4.69 1.51 4.69 3.76-1.89 3.76-4.69 3.76-4.69-1.51-4.69-3.76z"/><path id="path8" class="cls-2" d="M69.71 109.67v-1h-3.14V121h3.17v-6.55c0-1.12.13-2.26 1.64-2.81a4.49 4.49 0 0 1 1.63-.26h.46v-3a6.9 6.9 0 0 0-3.75 1.29z"/><path id="path10" class="cls-2" d="M86.37 104.17v5.48a8.87 8.87 0 0 0-4.81-1.29c-4.69 0-8 2.66-8 6.48s3.27 6.48 8 6.48a9.59 9.59 0 0 0 4.81-1.18v.86h3.14v-16.83zm-9.5 10.68c0-2.25 1.89-3.76 4.69-3.76s4.69 1.51 4.69 3.76-1.89 3.76-4.69 3.76-4.69-1.51-4.69-3.76z"/><path id="path12" class="cls-2" d="M108 114.85c0 3.88 3.17 6.48 7.9 6.48a8.63 8.63 0 0 0 4.86-1.18v.86h3.15v-6.1c0-3.91-3.2-6.54-8-6.54s-8 2.66-8 6.48zm3.26 0c0-2.25 1.89-3.76 4.69-3.76s4.69 1.51 4.69 3.76-1.89 3.76-4.69 3.76-4.69-1.51-4.69-3.76z"/><path id="path14" class="cls-2" d="M106.84 116.08a6.21 6.21 0 0 1-3.25 4.19 9.35 9.35 0 0 1-4.65 1.06c-4.88 0-7.93-3-7.93-6.4 0-3.87 3.36-6.58 7.93-6.55 6.07 0 7.9 3.8 8 6.16l-11.83 2.57a5.68 5.68 0 0 0 7.93-.21l3.78-.82zm-12.51-1.55l8.61-1.87a5 5 0 0 0-4-1.61c-2.67.07-4.47 1.49-4.6 3.47z"/><path id="path16" class="cls-2" d="M44.9 121h3v-15.14h-3.11v10.37l-9.56-10.38h-3.12v15.19h3.15v-10.15L44.9 121z"/><path id="path18" class="cls-2" d="M51.56 60.67c-2.37-8.61-6.21-15.87-10.88-20.89 31.55-7.22 53.9-6.16 57 2.53C103 57.24 73.93 85.09 48.06 93.4c5.33-6.82 7.26-19 3.49-32.73zm49-5.78c3.1-6.38 3.79-12.09 2.09-16.93a11.82 11.82 0 0 0-1.81-3.3c8.73 1.24 16.5 14.23 14.08 28.93-1.86 11.28-6.18 21.13-10.93 27-6.07-3-18.85-3.73-33.18-1.41-3.25.52-5.83 1-8.76 1.79 16.37-8.62 32.24-23.12 38.52-36.06z"/><path id="path20" class="cls-2" d="M51.56 60.67c3.77 13.71 1.83 25.91-3.49 32.73C73.93 85.1 103 57.24 97.7 42.32c-3.12-8.69-25.47-9.76-57-2.53 4.67 5 8.51 12.28 10.88 20.88z"/><path id="path22" class="cls-2" d="M100.52 54.89c3.1-6.38 3.79-12.09 2.09-16.93a11.82 11.82 0 0 0-1.81-3.3c8.73 1.24 16.5 14.23 14.08 28.93-1.86 11.28-6.18 21.13-10.93 27-6.07-3-18.85-3.73-33.18-1.41-3.25.52-5.83 1-8.76 1.79 16.37-8.62 32.24-23.12 38.52-36.06z"/></svg>