<svg id="Layer_1" data-name="Layer 1" xmlns="http://www.w3.org/2000/svg" viewBox="0 0 154 154"><defs><style>.cls-1{fill:#29a149;}.cls-2,.cls-3{fill:#fff;}.cls-3{fill-rule:evenodd;}</style></defs><title>Artboard 16 copy 5</title><circle class="cls-1" cx="77" cy="77" r="77"/><path class="cls-2" d="M11 84.54a3 3 0 0 0 0 .46c.22 1.14.48 2.28.67 3.43a1 1 0 0 0 .76.87 21.74 21.74 0 0 0 7.73.86 12.69 12.69 0 0 0 5.08-1.29 6.64 6.64 0 0 0 3.94-5.41 5.44 5.44 0 0 0-2.56-5.22c-1.32-.92-2.77-1.65-4.16-2.45-1.59-.91-3.25-1.72-4.77-2.73a3.18 3.18 0 0 1-1.59-3.46 3.36 3.36 0 0 1 2.78-2.4 9.28 9.28 0 0 1 7.28 1.23l.72.42v-3.2c0-.66-.23-.92-.84-1a21.15 21.15 0 0 0-7.17-.44 11.38 11.38 0 0 0-4.65 1.47 5.81 5.81 0 0 0-1.54 8.76 10.8 10.8 0 0 0 2.87 2.33c1.49.87 3.15 1.47 4.68 2.29a19.83 19.83 0 0 1 3.35 2.17 2.78 2.78 0 0 1 .94 3 3.77 3.77 0 0 1-2.72 2.52 9.76 9.76 0 0 1-6.71-.2A44.85 44.85 0 0 1 11 84.54zm32.19-20c.06.18.07.31.13.35 1.52.87 1.61 2.36 1.62 3.84v16.78c0 1.49-.18 3-1.68 3.8v.25H51a5.62 5.62 0 0 0-.62-.55 3.43 3.43 0 0 1-1.65-3.15v-17.9c0-.49.14-.74.68-.71 1.22.06 2.44 0 3.64.16A4.39 4.39 0 0 1 56.93 70a5 5 0 0 1-2.37 6.48 10.57 10.57 0 0 1-2.32.76 18.18 18.18 0 0 1-2 .25v.28c.53.12 1.06.29 1.61.35a9.53 9.53 0 0 0 7.12-1.7c3.55-2.65 3.8-8.77-1.13-11a12.28 12.28 0 0 0-4.92-1h-9c-.25.03-.48.06-.78.08zm26.1 23.17l-.09-.19a11.61 11.61 0 0 1-1.18 0c-1.13-.11-2.27-.17-3.38-.39a2.23 2.23 0 0 1-1.81-2A2.31 2.31 0 0 1 64 82.71a4.75 4.75 0 0 1 1.12-.58c1.78-.56 3.58-1.08 5.46-1.64v6.07a2.94 2.94 0 0 0 1.95 2.9 14.51 14.51 0 0 0 2.6.56.67.67 0 0 0 .54-.14c.66-.75 1.29-1.54 2-2.45h-1.24a2.26 2.26 0 0 1-2.37-2 12.09 12.09 0 0 1-.06-1.74c0-2.46.05-4.92 0-7.38a4.19 4.19 0 0 0-2.54-4 11.63 11.63 0 0 0-7.3-.38 1.68 1.68 0 0 0-1 .82c-.4.81-.68 1.68-1 2.56.34-.15.67-.31 1-.44a8.9 8.9 0 0 1 5.68-.45 2 2 0 0 1 1.73 1.72 2 2 0 0 1-1.32 2 25.66 25.66 0 0 1-2.5.94c-1.71.58-3.47 1-5.13 1.75A4.22 4.22 0 0 0 59 85.52a4.63 4.63 0 0 0 3.07 4 11.91 11.91 0 0 0 5 .59.69.69 0 0 0 .46-.19c.58-.75 1.16-1.48 1.76-2.21zm15 1.8v-.25a.72.72 0 0 0-.19-.22 2.87 2.87 0 0 1-1.25-2.7c0-2.24-.06-4.48 0-6.72a8.83 8.83 0 0 1 .58-2.89c.81-2 2.85-3 5.25-2.51a3.94 3.94 0 0 1 3.16 4c.09 2.83.08 5.67.1 8.5A2.54 2.54 0 0 1 90.81 89a3.31 3.31 0 0 0-.46.54h6.52c-.1-.19-.12-.34-.2-.39a3.13 3.13 0 0 1-1.34-3v-8.73a5.54 5.54 0 0 0-2-4.38c-2.26-1.82-7.46-2.23-10 1a5.71 5.71 0 0 1-.53.51v-2.78l-4.95.42a2.88 2.88 0 0 0 .42.47A2.69 2.69 0 0 1 79.38 75v11.64A2.59 2.59 0 0 1 78.25 89a3.31 3.31 0 0 0-.47.53zm51.56.13c-3.42-3.12-5.76-6.9-8.73-10.21l6.47-7.29h-5.84c1 .93 1.07 1.34.29 2.41a27.72 27.72 0 0 1-1.88 2.21c-.93 1-1.88 2-2.83 3 2.15 2.82 4.19 5.6 6.36 8.29a4 4 0 0 0 2.17 1.3 27.12 27.12 0 0 0 3.96.3zm-26.74-17.51c1 1.19 1 1.45 0 2.71-.5.65-1.06 1.25-1.61 1.85-1 1-1.92 2.06-2.91 3.12 2.14 2.82 4.21 5.61 6.38 8.32a3.6 3.6 0 0 0 2 1.24 32.74 32.74 0 0 0 4.2.28c-3.45-3.11-5.78-6.91-8.75-10.21l6.49-7.31zm33.94 17.37c-.19-.22-.24-.34-.34-.39a2.7 2.7 0 0 1-1.34-2.57c0-.42.06-.84.06-1.26V71.22c-1.61 1.3-3.36.61-5.1.94a3.54 3.54 0 0 0 .43.46 2.63 2.63 0 0 1 1.19 2.38v11.71a2.52 2.52 0 0 1-1.16 2.29 2.49 2.49 0 0 1-.58.19l.27.34zm-101.29-14H33.8a2.23 2.23 0 0 0-1.83.81c-.41.47-.84.92-1.24 1.39a3.81 3.81 0 0 0-.32.58h7.41a4.27 4.27 0 0 0 3.95-2.75zm97.66-5.93a2.29 2.29 0 1 0 0-4.57 2.29 2.29 0 0 0 0 4.57zm-96.49 8a1.24 1.24 0 0 0-1.69.42 3.17 3.17 0 0 1-3.06 1.41c-1.93-.11-3.87 0-5.81 0-.51 0-.86.13-.79.8h8.36a1.07 1.07 0 0 0 .68-.26c.76-.76 1.49-1.53 2.31-2.37z"/><path class="cls-3" d="M122.53 63.8v22.47a2.89 2.89 0 0 0 1.33 2.87.43.43 0 0 1 .14.17.92.92 0 0 1 0 .23h-6.52c.11-.17.13-.28.2-.32a3.06 3.06 0 0 0 1.36-3V67.88a3 3 0 0 0-1.35-2.94c-.07 0-.1-.15-.22-.33a4.55 4.55 0 0 1 .6-.1 23.94 23.94 0 0 0 2.61 0 5.47 5.47 0 0 0 1.44-.62zM103.72 63.8v22.3a3 3 0 0 0 1.39 3c.09.05.16.17.35.38h-6.67c.12-.18.17-.34.27-.41a3 3 0 0 0 1.26-2.85V69.59v-1.94A2.88 2.88 0 0 0 99.1 65c-.12-.08-.19-.25-.41-.55h3.12c.57 0 1.15 0 1.47-.64zM11 84.54a44.85 44.85 0 0 0 4.14 1.92 9.76 9.76 0 0 0 6.71.2 3.77 3.77 0 0 0 2.72-2.52 2.78 2.78 0 0 0-.94-3A19.83 19.83 0 0 0 20.24 79c-1.53-.82-3.18-1.42-4.68-2.29a10.8 10.8 0 0 1-2.87-2.33 5.81 5.81 0 0 1 1.54-8.76 11.38 11.38 0 0 1 4.65-1.47 21.15 21.15 0 0 1 7.17.44c.61.13.87.39.84 1-.05 1 0 2 0 3.2l-.72-.42a9.28 9.28 0 0 0-7.28-1.23 3.36 3.36 0 0 0-2.78 2.4A3.18 3.18 0 0 0 17.67 73c1.52 1 3.18 1.82 4.77 2.73 1.4.8 2.85 1.53 4.16 2.45a5.44 5.44 0 0 1 2.56 5.22 6.64 6.64 0 0 1-3.94 5.41 12.69 12.69 0 0 1-5.08 1.29 21.74 21.74 0 0 1-7.73-.86 1 1 0 0 1-.76-.87c-.19-1.15-.45-2.28-.67-3.43a3 3 0 0 1 .02-.4zM43.14 64.5h9.76a12.28 12.28 0 0 1 4.92 1c4.92 2.2 4.68 8.32 1.13 11a9.53 9.53 0 0 1-7.12 1.7c-.54-.07-1.07-.23-1.61-.35v-.28a18.18 18.18 0 0 0 2-.25 10.57 10.57 0 0 0 2.32-.76A5 5 0 0 0 56.93 70a4.39 4.39 0 0 0-3.84-2.67c-1.2-.15-2.43-.1-3.64-.16-.53 0-.68.22-.68.71v17.9A3.43 3.43 0 0 0 50.43 89a5.62 5.62 0 0 1 .62.55h-7.86v-.25c1.5-.85 1.68-2.31 1.68-3.8V68.72c0-1.48-.1-3-1.62-3.84-.04-.07-.04-.2-.11-.38zM69.29 87.71c-.59.72-1.18 1.45-1.79 2.17a.69.69 0 0 1-.46.19 11.91 11.91 0 0 1-5-.59 4.63 4.63 0 0 1-3.07-4 4.22 4.22 0 0 1 2.65-4.69c1.65-.72 3.42-1.17 5.13-1.75a25.66 25.66 0 0 0 2.5-.94 2 2 0 0 0 1.32-2 2 2 0 0 0-1.73-1.72 8.9 8.9 0 0 0-5.68.45c-.34.14-.67.29-1 .44.33-.88.61-1.75 1-2.56a1.68 1.68 0 0 1 1-.82 11.63 11.63 0 0 1 7.3.38 4.19 4.19 0 0 1 2.54 4c.09 2.46 0 4.92 0 7.38a12.09 12.09 0 0 0 .15 1.78 2.26 2.26 0 0 0 2.37 2h1.24c-.75.91-1.38 1.69-2 2.45a.67.67 0 0 1-.54.14 14.51 14.51 0 0 1-2.6-.56 2.94 2.94 0 0 1-1.95-2.9v-6.07c-1.88.56-3.68 1.08-5.46 1.64a4.75 4.75 0 0 0-1.12.58 2.31 2.31 0 0 0-1.21 2.38 2.23 2.23 0 0 0 1.81 2c1.11.22 2.25.28 3.38.39a11.61 11.61 0 0 0 1.18 0zM84.27 89.51h-6.49a3.31 3.31 0 0 1 .47-.53 2.59 2.59 0 0 0 1.13-2.31V75.03a2.69 2.69 0 0 0-1.13-2.39 2.88 2.88 0 0 1-.42-.47l4.95-.42v2.69a5.71 5.71 0 0 0 .53-.51c2.49-3.2 7.69-2.79 10-1a5.54 5.54 0 0 1 2 4.38c.07 2.91 0 5.82 0 8.73a3.13 3.13 0 0 0 1.34 3c.08.05.11.2.2.39h-6.5a3.31 3.31 0 0 1 .46-.54 2.54 2.54 0 0 0 1.1-2.24c0-2.83 0-5.67-.1-8.5a3.94 3.94 0 0 0-3.16-4c-2.39-.44-4.43.47-5.25 2.51a8.83 8.83 0 0 0-.58 2.89c-.09 2.24 0 4.48 0 6.72A2.87 2.87 0 0 0 84.05 89a.72.72 0 0 1 .19.22s.01.14.03.29z"/><path class="cls-3" d="M135.82 89.65a27.12 27.12 0 0 1-4-.25 4 4 0 0 1-2.17-1.3c-2.17-2.69-4.22-5.47-6.36-8.29 1-1 1.91-2 2.83-3a27.72 27.72 0 0 0 1.88-2.25c.78-1.07.71-1.48-.29-2.41h5.84l-6.47 7.29c2.98 3.31 5.32 7.09 8.74 10.21zM109.11 72.13h5.78l-6.49 7.31c3 3.3 5.3 7.09 8.75 10.21a32.74 32.74 0 0 1-4.2-.28 3.6 3.6 0 0 1-2-1.24c-2.17-2.71-4.24-5.51-6.38-8.32 1-1.06 2-2.08 2.91-3.12.55-.6 1.11-1.2 1.61-1.85 1.01-1.26.99-1.52.02-2.71zM143.05 89.51h-6.57l-.27-.34a2.49 2.49 0 0 0 .58-.19 2.52 2.52 0 0 0 1.15-2.29V74.98a2.63 2.63 0 0 0-1.19-2.35 3.54 3.54 0 0 1-.43-.46c1.74-.33 3.49.36 5.1-.94v14.09c0 .42-.06.84-.06 1.26a2.7 2.7 0 0 0 1.34 2.57c.11.02.17.14.35.36zM41.77 75.53a4.27 4.27 0 0 1-3.93 2.77h-7.41a3.81 3.81 0 0 1 .32-.58c.4-.47.83-.92 1.24-1.39a2.23 2.23 0 0 1 1.83-.81h7.16c.22-.03.46-.01.79.01zM139.42 69.6a2.29 2.29 0 0 1 0-4.57 2.29 2.29 0 1 1 0 4.57z"/><path class="cls-3" d="M42.93 77.57c-.82.84-1.55 1.61-2.31 2.34a1.07 1.07 0 0 1-.68.26h-8.36c-.07-.66.28-.8.79-.8 1.94 0 3.88-.08 5.81 0A3.17 3.17 0 0 0 41.24 78a1.24 1.24 0 0 1 1.69-.43z"/></svg>